# xmcd CD database file
#
# Track frame offsets:
#	150
#	32652
#	57242
#	80665
#	102102
#	126910
#	149460
#	166687
#	184870
#	208100
#
# Disc length: 3032 seconds
#
# Revision: 0
# Processed by: cddbd v1.5.2PL0 Copyright (c) Steve Scherf et al.
# Submitted via: CDex 1.70beta2
#
DISCID=890bd60a
DTITLE=Sweet Pea - Why Do I Holler Blue
DYEAR=1997
DGENRE=Blues
TTITLE0=Surrender
TTITLE1=Brandy Blue
TTITLE2=Light My Fire
TTITLE3=Jungle Man
TTITLE4=Why Do I Holler Blue
TTITLE5=Walkin' Cane
TTITLE6=Daddy Take Me Down
TTITLE7=Can't Have My Monkey
TTITLE8=Find Me An Angel
TTITLE9=Sweet Illusions
EXTD=YEAR: 1997
EXTT0=
EXTT1=
EXTT2=
EXTT3=
EXTT4=
EXTT5=
EXTT6=
EXTT7=
EXTT8=
EXTT9=
PLAYORDER=
